HIERARCHY
ROOT SpineBase
{
  OFFSET 0.000000 0.000000 0.000000
  CHANNELS 6 Xposition Yposition Zposition Zrotation Xrotation Yrotation
  JOINT SpineMid
  {
    OFFSET -0.000000 33.664554 -0.000000
    CHANNELS 3 Zrotation Xrotation Yrotation
    JOINT SpineShoulder
    {
      OFFSET 0.034975 24.599416 -0.909421
      CHANNELS 3 Zrotation Xrotation Yrotation
      JOINT Neck
      {
        OFFSET 0.079616 8.133322 -0.662856
        CHANNELS 3 Zrotation Xrotation Yrotation
        JOINT Head
        {
          OFFSET 2.963877 10.259917 4.975859
          CHANNELS 3 Zrotation Xrotation Yrotation
          End Site
          {
            OFFSET 0 0 0
          }
        }
      }
      JOINT ShoulderLeft
      {
        OFFSET -3.056059 -4.981611 -15.278839
        CHANNELS 3 Zrotation Xrotation Yrotation
        JOINT ElbowLeft
        {
          OFFSET -6.295005 -23.986685 -12.249484
          CHANNELS 3 Zrotation Xrotation Yrotation
          JOINT WristLeft
          {
            OFFSET 5.173832 -21.599382 1.708964
            CHANNELS 3 Zrotation Xrotation Yrotation
            JOINT HandLeft
            {
              OFFSET 2.125343 -5.393457 6.349665
              CHANNELS 3 Zrotation Xrotation Yrotation
              JOINT HandTipLeft
              {
                OFFSET 1.438703 -7.525098 0.538169
                CHANNELS 3 Zrotation Xrotation Yrotation
                End Site
                {
                  OFFSET 0 0 0
                }
              }
              JOINT ThumbLeft
              {
                OFFSET 2.272110 4.275754 2.196690
                CHANNELS 3 Zrotation Xrotation Yrotation
                End Site
                {
                  OFFSET 0 0 0
                }
              }
            }
          }
        }
      }
      JOINT ShoulderRight
      {
        OFFSET 9.101147 -8.542555 21.142398
        CHANNELS 3 Zrotation Xrotation Yrotation
        JOINT ElbowRight
        {
          OFFSET -10.861466 -9.560740 -28.432913
          CHANNELS 3 Zrotation Xrotation Yrotation
          JOINT WristRight
          {
            OFFSET -2.792312 -11.627810 -29.027887
            CHANNELS 3 Zrotation Xrotation Yrotation
            JOINT HandRight
            {
              OFFSET -1.003941 -3.917645 -9.257109
              CHANNELS 3 Zrotation Xrotation Yrotation
              JOINT HandTipRight
              {
                OFFSET -0.700487 -0.603022 -2.277090
                CHANNELS 3 Zrotation Xrotation Yrotation
                End Site
                {
                  OFFSET 0 0 0
                }
              }
              JOINT ThumbRight
              {
                OFFSET 1.980257 2.122100 -2.465413
                CHANNELS 3 Zrotation Xrotation Yrotation
                End Site
                {
                  OFFSET 0 0 0
                }
              }
            }
          }
        }
      }
    }
  }
  JOINT HipLeft
  {
    OFFSET -1.553422 1.622684 -6.424813
    CHANNELS 3 Zrotation Xrotation Yrotation
    JOINT KneeLeft
    {
      OFFSET -5.251123 -36.728471 -6.422710
      CHANNELS 3 Zrotation Xrotation Yrotation
      JOINT AnkleLeft
      {
        OFFSET -9.356817 -35.428247 -0.876394
        CHANNELS 3 Zrotation Xrotation Yrotation
        JOINT FootLeft
        {
          OFFSET 3.431781 -8.119560 -2.195813
          CHANNELS 3 Zrotation Xrotation Yrotation
          End Site
          {
            OFFSET 0 0 0
          }
        }
      }
    }
  }
  JOINT HipRight
  {
    OFFSET 2.618294 -0.318294 -1.228638
    CHANNELS 3 Zrotation Xrotation Yrotation
    JOINT KneeRight
    {
      OFFSET -6.798954 -39.815793 -2.904085
      CHANNELS 3 Zrotation Xrotation Yrotation
      JOINT AnkleRight
      {
        OFFSET -7.005137 -34.077592 -0.483590
        CHANNELS 3 Zrotation Xrotation Yrotation
        JOINT FootRight
        {
          OFFSET -1.097114 -0.032367 9.971922
          CHANNELS 3 Zrotation Xrotation Yrotation
          End Site
          {
            OFFSET 0 0 0
          }
        }
      }
    }
  }
}
MOTION
Frames: 14
Frame Time: 0.033333
-51.411133 79.334475 334.230391 0.590646 -1.397533 -47.040157 -0.503746 -0.073752 47.058918 -0.030714 0.102204 0.014263 -7.246663 -4.270799 4.751761 0.000000 0.000000 0.000000 -1.090845 -0.661646 0.889992 1.760438 2.042964 -0.781673 0.374723 -1.000928 0.994988 -3.993090 0.074164 -1.439830 0.000000 0.000000 0.000000 0.000000 0.000000 0.000000 1.377334 4.249512 -7.826083 0.814772 -2.328849 2.607015 0.182037 0.043523 -0.189949 -2.120905 -1.086128 5.361149 0.000000 0.000000 0.000000 0.000000 0.000000 0.000000 -4.644316 0.708079 47.092342 2.055755 -2.484479 0.040578 -3.444048 -2.528553 -0.217299 0.000000 0.000000 0.000000 -4.165810 12.575019 45.100811 -4.718081 -51.638640 11.619093 -48.031655 58.808918 155.505267 0.000000 0.000000 0.000000
-51.294660 79.369927 334.248699 0.617145 -1.413284 -46.401794 -0.503876 -0.073895 46.421883 -0.030558 0.107207 0.015384 -6.822431 -4.689902 4.661176 0.000000 0.000000 0.000000 -1.154580 -0.652688 0.911056 1.808001 2.105748 -0.791272 0.762064 -1.535429 1.258268 -3.786096 -0.031799 -1.762356 0.000000 0.000000 0.000000 0.000000 0.000000 0.000000 1.364581 4.214616 -7.813063 0.798782 -2.300202 2.596265 0.182416 0.042367 -0.190229 -2.121938 -1.065399 5.356274 0.000000 0.000000 0.000000 0.000000 0.000000 0.000000 -4.752160 0.762379 46.456254 2.107391 -2.554545 0.044006 -2.254472 -1.908521 -0.237558 0.000000 0.000000 0.000000 -4.321227 12.737056 44.441865 -4.564494 -51.918492 11.689368 -45.031663 58.753479 152.837227 0.000000 0.000000 0.000000
-51.168791 79.378149 334.267096 0.651219 -1.436039 -45.899745 -0.501859 -0.072333 45.921691 -0.033255 0.113064 0.016829 -7.276966 -5.060588 4.947735 0.000000 0.000000 0.000000 -1.210119 -0.665999 0.930375 1.842400 2.108702 -0.820543 1.267547 -1.954788 1.692877 -2.734977 0.311445 -2.076846 0.000000 0.000000 0.000000 0.000000 0.000000 0.000000 1.360978 4.120032 -7.793161 0.763521 -2.236778 2.571966 0.183373 0.039951 -0.190497 -2.129370 -1.015874 5.356437 0.000000 0.000000 0.000000 0.000000 0.000000 0.000000 -4.876879 0.794358 45.958958 2.171695 -2.619698 0.044760 -1.555252 -1.553681 -0.259623 0.000000 0.000000 0.000000 -4.309831 11.527859 44.116961 -3.749225 -51.056971 11.536709 -57.869580 58.608248 163.930423 0.000000 0.000000 0.000000
-51.041750 79.382943 334.284139 0.690827 -1.467945 -45.324176 -0.492541 -0.066504 45.348588 -0.034443 0.117535 0.019077 -7.371035 -5.358420 5.052939 0.000000 0.000000 0.000000 -1.265836 -0.694859 0.948689 1.922075 2.094366 -0.858262 1.727821 -2.295188 2.159390 -2.832223 0.623500 -2.495427 0.000000 0.000000 0.000000 0.000000 0.000000 0.000000 1.348377 3.995360 -7.752845 0.720262 -2.151907 2.524161 0.184609 0.036728 -0.190566 -2.140559 -0.945003 5.357999 0.000000 0.000000 0.000000 0.000000 0.000000 0.000000 -5.030857 0.854409 45.386332 2.238250 -2.710948 0.049519 -0.717049 -0.979544 -0.227359 0.000000 0.000000 0.000000 -4.470998 11.485113 43.552369 -3.509169 -51.156286 11.567109 -57.837845 58.590137 163.957306 0.000000 0.000000 0.000000
-50.896964 79.389055 334.307114 0.748853 -1.515326 -44.756773 -0.493453 -0.063929 44.784436 -0.038360 0.117368 0.021669 -7.175919 -5.556284 5.008511 0.000000 0.000000 0.000000 -1.307921 -0.681476 0.949443 1.914010 2.097624 -0.870771 2.101082 -2.096902 2.663409 -2.895802 0.155777 -3.031574 0.000000 0.000000 0.000000 0.000000 0.000000 0.000000 1.503584 3.788963 -8.135361 0.609607 -2.039225 2.662607 0.195412 0.031344 -0.198780 -2.258848 -0.827420 5.596725 0.000000 0.000000 0.000000 0.000000 0.000000 0.000000 -5.231178 0.896505 44.826778 2.333858 -2.805513 0.050532 -0.000000 0.000000 0.000000 0.000000 0.000000 0.000000 -4.718931 11.459333 42.996749 -3.225000 -51.307066 11.612374 -57.818238 58.565433 164.008666 0.000000 0.000000 0.000000
-50.740643 79.432934 334.345476 0.825838 -1.585651 -44.457314 -0.502718 -0.059837 44.489312 -0.042547 0.116764 0.025046 -7.256054 -5.872215 5.113110 0.000000 0.000000 0.000000 -1.382424 -0.645092 0.956036 1.883859 2.115991 -0.886327 2.082917 -1.728170 2.741330 -3.751700 -0.085949 -3.164418 0.000000 0.000000 0.000000 0.000000 0.000000 0.000000 1.436380 3.650549 -7.961614 0.569669 -1.927412 2.534573 0.194784 0.027211 -0.196604 -2.249732 -0.735325 5.542504 0.000000 0.000000 0.000000 0.000000 0.000000 0.000000 -5.462418 0.886507 44.541510 1.619666 -2.669618 -0.029557 0.830290 -0.204658 0.035064 0.000000 0.000000 0.000000 -5.083222 11.438136 42.713100 -2.922251 -51.492383 11.668393 -57.797516 58.543249 164.051352 0.000000 0.000000 0.000000
-50.590921 79.481386 334.368020 0.907686 -1.636462 -44.227436 -0.499333 -0.062283 44.264055 -0.049585 0.111324 0.028663 -7.574675 -6.176146 5.314901 0.000000 0.000000 0.000000 -1.448398 -0.595702 0.950504 1.818434 2.138942 -0.886183 2.531434 -1.812041 3.167713 -4.549534 -0.120238 -3.627440 0.000000 0.000000 0.000000 0.000000 0.000000 0.000000 1.198885 3.570926 -7.359165 0.590494 -1.825624 2.205520 0.185089 0.024320 -0.186328 -2.138883 -0.672160 5.258382 0.000000 0.000000 0.000000 0.000000 0.000000 0.000000 -5.642910 0.824949 44.328205 1.629551 -2.777605 -0.022404 1.818583 0.210415 -0.095086 0.000000 0.000000 0.000000 -5.455084 11.427378 42.494602 -2.631062 -51.701916 11.732180 -57.782574 58.520712 164.097505 0.000000 0.000000 0.000000
-50.475361 79.514757 334.378926 0.974051 -1.659303 -44.038104 -0.491803 -0.063584 44.078404 -0.057010 0.110267 0.031474 -8.207248 -6.369275 5.618669 0.000000 0.000000 0.000000 -1.520532 -0.579811 0.955561 1.887267 2.143047 -0.895602 2.938938 -2.054836 3.605010 -6.109390 0.453383 -4.046097 0.000000 0.000000 0.000000 0.000000 0.000000 0.000000 0.849841 3.526457 -6.450968 0.662533 -1.743946 1.739556 0.168572 0.023110 -0.170218 -1.951717 -0.643331 4.806099 0.000000 0.000000 0.000000 0.000000 0.000000 0.000000 -5.760115 0.758821 44.151230 1.661731 -2.805529 -0.028194 1.780386 0.547799 0.046868 0.000000 0.000000 0.000000 -5.780198 11.304437 42.329326 -2.304744 -51.820465 11.775300 -57.710086 58.511691 164.071775 0.000000 0.000000 0.000000
-50.407778 79.532394 334.365897 1.002952 -1.653573 -43.913018 -0.476887 -0.069413 43.954929 -0.057804 0.106523 0.033080 -8.714390 -6.513008 5.861606 0.000000 0.000000 0.000000 -1.607563 -0.553604 0.977415 1.903529 2.127614 -0.921823 3.428830 -2.184055 4.078035 -6.729289 0.225360 -4.581211 0.000000 0.000000 0.000000 0.000000 0.000000 0.000000 0.447999 3.534871 -5.372337 0.773779 -1.692734 1.207598 0.147730 0.023628 -0.150775 -1.715892 -0.654275 4.251812 0.000000 0.000000 0.000000 0.000000 0.000000 0.000000 -5.771307 0.696640 44.034576 1.666200 -2.762554 -0.040520 1.000954 -0.091905 0.000315 0.000000 0.000000 0.000000 -5.718796 11.274116 42.201334 -2.342943 -51.772138 11.760560 -57.674732 58.506590 164.062098 0.000000 0.000000 0.000000
-50.344235 79.533687 334.336410 0.998838 -1.635501 -43.739766 -0.453168 -0.072968 43.781749 -0.049200 0.099354 0.034217 -8.900745 -6.542437 5.943620 0.000000 0.000000 0.000000 -1.727394 -0.553443 1.031179 2.154245 2.094933 -0.979531 3.263843 -2.452408 3.935937 -6.572445 1.297298 -4.240259 0.000000 0.000000 0.000000 0.000000 0.000000 0.000000 0.015429 3.615988 -4.239040 0.914169 -1.682256 0.668663 0.124771 0.025954 -0.130283 -1.455739 -0.708528 3.652811 0.000000 0.000000 0.000000 0.000000 0.000000 0.000000 -5.742900 0.642553 43.872228 1.730089 -2.675636 -0.061733 -0.357118 -1.576757 -0.264570 0.000000 0.000000 0.000000 -5.349816 11.322475 42.005517 -2.651013 -51.592109 11.701342 -57.691752 58.497746 164.098557 0.000000 0.000000 0.000000
-50.283270 79.526970 334.300049 0.970175 -1.615771 -43.755806 -0.422239 -0.075695 43.796835 -0.035044 0.092110 0.034971 -9.205400 -6.561367 6.080669 0.000000 0.000000 0.000000 -1.854301 -0.532373 1.090858 2.444850 2.060349 -1.036254 3.000634 -1.980754 3.991051 -6.304372 0.794782 -4.360413 0.000000 0.000000 0.000000 0.000000 0.000000 0.000000 -0.392811 3.712067 -3.164351 1.054569 -1.686144 0.163906 0.102787 0.028756 -0.111009 -1.206474 -0.773671 3.081143 0.000000 0.000000 0.000000 0.000000 0.000000 0.000000 -5.686476 0.564622 43.902605 1.799739 -2.583892 -0.082819 -1.440997 -2.808634 -0.534599 0.000000 0.000000 0.000000 -4.982718 11.444108 41.990343 -3.013403 -51.456747 11.653533 -57.766895 58.483849 164.186322 0.000000 0.000000 0.000000
-50.227891 79.515077 334.254326 0.931265 -1.587560 -43.872544 -0.394377 -0.079400 43.911935 -0.021250 0.087677 0.035011 -8.855250 -6.716920 5.970654 0.000000 0.000000 0.000000 -2.015229 -0.493207 1.167560 2.768446 1.984339 -1.110387 2.578044 -1.242466 3.951375 -5.566936 0.189528 -4.351996 0.000000 0.000000 0.000000 0.000000 0.000000 0.000000 -0.725190 3.784715 -2.268611 1.173885 -1.694887 -0.252325 0.084407 0.031260 -0.095098 -0.997618 -0.834473 2.602474 0.000000 0.000000 0.000000 0.000000 0.000000 0.000000 -5.585500 0.490247 44.029579 1.817774 -2.467684 -0.104482 -1.845023 -3.858937 -0.897043 0.000000 0.000000 0.000000 -4.513257 11.640347 42.059546 -3.515018 -51.308793 11.599769 -57.857619 58.476639 164.266483 0.000000 0.000000 0.000000
-50.178394 79.493679 334.216151 0.863605 -1.566706 -44.007384 -0.371144 -0.081267 44.043747 -0.004790 0.083844 0.033901 -8.522216 -6.813274 5.868870 0.000000 0.000000 0.000000 -2.165000 -0.504692 1.268553 3.137323 1.950183 -1.209638 2.358002 -1.024566 3.970226 -4.908155 0.024848 -4.346330 0.000000 0.000000 0.000000 0.000000 0.000000 0.000000 -0.912386 3.821518 -1.672114 1.249378 -1.695201 -0.527550 0.072440 0.032580 -0.084905 -0.859593 -0.871450 2.284340 0.000000 0.000000 0.000000 0.000000 0.000000 0.000000 -5.477698 0.456020 44.173524 1.818136 -2.386354 -0.118623 -2.358100 -5.006908 -1.300190 0.000000 0.000000 0.000000 -3.938548 11.919771 42.133521 -4.128198 -51.141207 11.540396 -57.992228 58.463010 164.393722 0.000000 0.000000 0.000000
-50.135466 79.475353 334.171994 0.781996 -1.552749 -44.137942 -0.345735 -0.080949 44.170761 0.016683 0.077327 0.032750 -7.873737 -6.824416 5.616915 0.000000 0.000000 0.000000 -2.303893 -0.509575 1.368322 3.522175 1.936109 -1.301924 2.002226 -0.809421 3.857985 -4.575738 -0.109347 -4.236728 0.000000 0.000000 0.000000 0.000000 0.000000 0.000000 -0.932359 3.835213 -1.500978 1.268206 -1.692250 -0.604079 0.069318 0.032570 -0.082540 -0.820454 -0.879158 2.193183 0.000000 0.000000 0.000000 0.000000 0.000000 0.000000 -5.356072 0.453361 44.310887 1.790161 -2.322592 -0.126403 -2.348095 -5.763622 -1.653394 0.000000 0.000000 0.000000 -3.350747 12.222651 42.199531 -4.748748 -50.972433 11.483722 -58.163441 58.444375 164.557093 0.000000 0.000000 0.000000
